<?xml version="1.0" encoding="utf-8"?>
<!-- Generator: Adobe Illustrator 28.0.0, SVG Export Plug-In . SVG Version: 6.00 Build 0)  -->
<svg version="1.1" id="Layer_1" xmlns="http://www.w3.org/2000/svg" xmlns:xlink="http://www.w3.org/1999/xlink" x="0px" y="0px"
	 viewBox="0 0 1800 600" style="enable-background:new 0 0 1800 600;" xml:space="preserve">
<style type="text/css">
	.st0{fill:#76777A;}
	.st1{fill:#EE7623;}
</style>
<g>
	<path class="st0" d="M1506,462.9c0,15-11.4,28.1-28.2,28.1c-16.7,0-27.9-12.9-27.9-27.9c0-14.9,11.4-28,28.1-28
		C1494.8,435.1,1506,448,1506,462.9 M1478,485.3c12.6,0,21.6-9.9,21.6-22.2c0-12.3-9.1-22.4-21.7-22.4c-12.6,0-21.5,9.9-21.5,22.2
		C1456.4,475.3,1465.5,485.3,1478,485.3"/>
	<rect x="1394.8" y="434.5" class="st0" width="20" height="80"/>
	<path class="st0" d="M1302.7,461.4c0,12.6,9.2,22.4,21.3,22.4c7.6,0,12.5-2.8,17.8-7.8l4.1,3.9c-5.8,5.7-12,9.5-22,9.5
		c-15.9,0-27.5-12.3-27.5-27.9c0-15.4,11.6-28,27.8-28c10,0,15.9,3.4,21.4,8.5l-4.2,4.5c-4.6-4.4-9.8-7.5-17.3-7.5
		C1311.8,439.2,1302.7,448.9,1302.7,461.4"/>
	<path class="st0" d="M1222.2,434.3l25.1,54.5h-6.7l-6.5-14.3h-29.9l-6.6,14.3h-6.3l25-54.5H1222.2z M1231.7,469l-12.5-27.6
		l-12.6,27.6H1231.7z"/>
	<path class="st0" d="M1121,464c9.1,0,15.1-4.8,15.1-12c0-7.8-5.9-11.8-14.8-11.8h-13.9V464H1121z M1121.8,434.5
		c12.4,0,20.6,6.5,20.6,17.3c0,11.7-9.9,17.7-21.6,17.7h-13.4v19.1h-6.2v-54.1H1121.8z"/>
	<path class="st0" d="M1013.2,448.4c0-8.6,7.6-14.8,18.1-14.8c8,0,13.7,2.3,19.3,6.6l-3.6,4.7c-5.1-4.1-10.2-5.9-15.9-5.9
		c-7.1,0-11.7,3.8-11.7,8.8c0,5.2,2.8,8,14.9,10.6c12.3,2.6,17.9,7,17.9,15.3c0,9.4-7.9,15.4-18.8,15.4c-8.7,0-15.9-2.9-22.5-8.6
		l3.9-4.5c5.7,5.1,11.2,7.6,18.9,7.6c7.4,0,12.2-3.7,12.2-9.2c0-5.1-2.7-7.9-14.3-10.3C1019,461.4,1013.2,457.4,1013.2,448.4"/>
	<polygon class="st0" points="928.1,458.5 958.1,458.5 958.1,464.1 928.1,464.1 928.1,483.1 962,483.1 962,488.6 921.9,488.6 
		921.9,434.5 961.6,434.5 961.6,440.1 928.1,440.1 	"/>
	<path class="st0" d="M1677.4,312.1v-0.6c0-8.4-2.8-15.4-8.2-21.1c-5.4-5.7-12.1-8.5-20.1-8.5c-8,0-14.6,2.8-19.8,8.5
		c-5.2,5.7-7.9,12.5-7.9,20.4v0.7c0,8.3,2.7,15.3,8.1,21c5.5,5.7,12.2,8.6,20.1,8.6c8,0,14.5-2.9,19.8-8.6
		C1674.8,326.8,1677.4,320.1,1677.4,312.1 M1745.9,310.9v0.7c0,11.9-2.4,23.2-7.2,33.9c-4.9,10.7-11.5,20-20,28.1
		c-8.5,8-18.6,14.4-30.6,19.1c-12,4.7-24.9,7.1-38.9,7.1c-14.1,0-27-2.3-38.8-7c-11.8-4.6-22-10.9-30.5-18.9
		c-8.5-8-15.1-17.3-19.8-28c-4.8-10.5-7.1-21.8-7.1-33.8v-0.6c0-12,2.4-23.3,7.2-34c4.8-10.7,11.4-20.1,19.9-28.1
		c8.5-8,18.6-14.4,30.4-19.1c11.8-4.7,24.9-7.1,39.1-7.1c14,0,26.9,2.3,38.8,7c11.8,4.6,22,10.9,30.5,19c8.5,8,15,17.3,19.8,27.9
		C1743.6,287.7,1745.9,299,1745.9,310.9"/>
	<path class="st0" d="M1536.2,284.7v111h-71.6v-89.1c0-7.2-1.8-12.7-5.4-16.5c-3.6-3.8-8.1-5.7-13.3-5.7c-5.2,0-9.7,1.9-13.7,5.7
		c-3.9,3.8-5.9,9.3-5.9,16.5v89.1h-71.6v-89.1c0-7.2-1.8-12.7-5.4-16.5c-3.6-3.8-8-5.7-13.2-5.7c-5.2,0-9.8,1.9-13.7,5.7
		c-3.9,3.8-5.9,9.3-5.9,16.5v89.1h-71.6V227.3h71.6v22.5c5.4-7,12.4-13.1,21-18.5c8.6-5.4,18.8-8,30.7-8c11.7,0,21.8,2.4,30.4,7.1
		c8.6,4.7,15.2,11.6,20,20.7c7.4-8,15.6-14.7,24.7-19.9c9.1-5.2,20.3-7.9,33.5-7.9c18.5,0,33,5.4,43.6,16.4
		C1530.9,250.5,1536.2,265.5,1536.2,284.7"/>
	<path class="st0" d="M1160.1,312.1v-0.6c0-8.4-2.8-15.4-8.2-21.1c-5.4-5.7-12.1-8.5-20.1-8.5c-8,0-14.5,2.8-19.8,8.5
		c-5.2,5.7-7.9,12.5-7.9,20.4v0.7c0,8.3,2.8,15.3,8.2,21c5.5,5.7,12.1,8.6,20.1,8.6c7.9,0,14.6-2.9,19.8-8.6
		C1157.5,326.8,1160.1,320.1,1160.1,312.1 M1228.5,310.9v0.7c0,11.9-2.4,23.2-7.2,33.9c-4.8,10.7-11.5,20-19.9,28.1
		c-8.5,8-18.8,14.4-30.7,19.1c-12,4.7-24.9,7.1-39,7.1c-14,0-26.9-2.3-38.8-7c-11.8-4.6-22-10.9-30.5-18.9c-8.5-8-15-17.3-19.7-28
		c-4.8-10.5-7.1-21.8-7.1-33.8v-0.6c0-12,2.4-23.3,7.2-34c4.8-10.7,11.5-20.1,19.9-28.1c8.5-8,18.6-14.4,30.5-19.1
		c11.8-4.7,24.8-7.1,39.1-7.1c14,0,26.9,2.3,38.7,7c11.9,4.6,22,10.9,30.5,19c8.5,8,15.1,17.3,19.8,27.9
		C1226.2,287.7,1228.5,299,1228.5,310.9"/>
	<path class="st0" d="M1012.1,299.2c-15.1,0-26.6,4.2-34.4,12.8c-7.9,8.5-11.8,22.2-11.8,40.9v42.9h-71.6V227.3h71.6v33.9
		c4.8-11.3,11.4-20.3,19.8-27.1c8.4-6.8,19.7-9.9,33.9-9.3v74.4H1012.1z"/>
	<path class="st0" d="M808.9,311.8v-0.6c0-8.6-2.7-15.9-8.1-21.6c-5.4-5.8-12.2-8.6-20.3-8.6c-8.1,0-14.9,2.9-20.3,8.6
		c-5.4,5.7-8.1,12.9-8.1,21.6v0.6c0,4.1,0.7,8,2.2,11.7c1.4,3.7,3.4,7,5.9,9.7c2.5,2.8,5.5,4.9,8.9,6.5c3.4,1.5,7.2,2.3,11.4,2.3
		c8.1,0,14.9-2.9,20.3-8.6S808.9,320.4,808.9,311.8 M878,310.3v0.6c0,13.4-1.9,25.5-5.8,36.4c-3.9,10.9-9.1,20.3-15.7,28.1
		c-6.6,7.8-14.3,13.8-23.2,18.1c-8.9,4.2-18.4,6.3-28.3,6.3c-13,0-23.4-2.4-31.4-7.1c-7.9-4.7-14.6-10.1-20-16v68.5H682V227.3h71.6
		v20.7c2.9-3.1,6-6.1,9.2-9.1c3.2-3,6.9-5.6,10.8-7.9c4-2.3,8.5-4.1,13.5-5.5c5-1.5,10.7-2.2,17.2-2.2c10.2,0,19.9,2.1,28.8,6.4
		c9,4.2,16.8,10.2,23.4,17.9c6.7,7.7,12,16.8,15.7,27.4C876.1,285.5,878,297.3,878,310.3"/>
	<path class="st1" d="M162.3,132.6c0.6-0.4,1.3-0.9,1.9-1.2C163.5,131.7,162.9,132.1,162.3,132.6"/>
	<path class="st1" d="M160.3,134.1c0.4-0.4,0.9-0.7,1.3-1C161.2,133.4,160.8,133.7,160.3,134.1"/>
	<path class="st1" d="M165.3,130.6c0.4-0.2,0.8-0.4,1.1-0.6C166.1,130.2,165.7,130.4,165.3,130.6"/>
	<path class="st1" d="M166.4,130c0.5-0.3,1.1-0.6,1.5-0.8C167.5,129.4,167,129.7,166.4,130"/>
	<path class="st1" d="M157.7,136.4c0.4-0.4,0.9-0.8,1.3-1.2C158.6,135.5,158.1,135.9,157.7,136.4"/>
	<path class="st1" d="M146.9,154.5c0.2-0.8,0.4-1.6,0.7-2.4C147.4,152.9,147.1,153.7,146.9,154.5"/>
	<path class="st1" d="M150.9,144.9c0.4-0.6,0.7-1.2,1.1-1.8C151.6,143.6,151.3,144.2,150.9,144.9"/>
	<path class="st1" d="M172,127.4c-0.3,0.1-0.7,0.3-1,0.4c-0.7,0.3-1.7,0.7-3,1.3c1.3-0.6,2.3-1.1,3-1.3
		C171.3,127.7,171.6,127.6,172,127.4"/>
	<path class="st1" d="M213.3,216.4c-1.9,0.6-3.9,1.1-5.9,1.6c-2,0.4-4,0.7-6,0.9c-2.7,0.3-5.5,0.4-8.2,0.3c-0.7,0-1.4-0.1-2-0.1
		c-4.1-0.3-8.2-1.1-12.1-2.4c-0.7-0.2-1.3-0.4-2-0.7c-1.3-0.5-2.6-1-3.8-1.6c-1.2-0.6-2.5-1.2-3.7-1.9c-1.8-1.1-3.5-2.2-5.2-3.5
		c-1.1-0.9-2.2-1.8-3.2-2.8c-1-1-2-2-3-3.2c-1.4-1.7-2.8-3.5-4-5.5c-0.8-1.3-1.6-2.7-2.3-4.1c-1.4-2.9-2.6-6-3.6-9.4
		c-3.5-12.2-3.4-21.9-1.3-29.6c0.2-0.8,0.4-1.6,0.7-2.4c0.9-2.7,2-5.1,3.3-7.3c0.4-0.6,0.7-1.2,1.1-1.8c1.7-2.6,3.7-4.8,5.7-6.7
		c0.4-0.4,0.9-0.8,1.3-1.2c0.4-0.4,0.9-0.7,1.3-1.1c0.4-0.4,0.9-0.7,1.3-1c0.2-0.1,0.4-0.3,0.7-0.5c0.6-0.4,1.3-0.9,1.9-1.2
		c0.4-0.3,0.8-0.5,1.2-0.7c0.4-0.2,0.8-0.4,1.1-0.6c0.5-0.3,1.1-0.6,1.5-0.8c1.3-0.6,2.3-1.1,3-1.3c0.3-0.1,0.7-0.3,1-0.4
		c0.3-0.1,0.7-0.3,1-0.5c36.4-18.1,70.9,8.4,70.3,53.5c-0.1,6.8-2.1,12.9-5.5,18.1c-0.7,1-1.4,2-2.2,3c-1.6,1.9-3.3,3.7-5.3,5.4
		c-1,0.8-2,1.6-3,2.4c-3.1,2.2-6.6,4.1-10.3,5.6C215.8,215.5,214.5,216,213.3,216.4 M280.4,463l-1.1-0.9c-0.4-0.3-0.9-0.7-1.3-1
		c-21.1-14.8-112.7-86.3,9.3-133.6C451.2,263.8,327.4,16.9,166,69.6c-143.9,47-135.5,197.1-68.4,300.9
		c41,63.3,110.8,112.5,158.7,131.8c0,0,0,0,0.1,0c0,0,0.1,0,0.1,0.1l0,0c2.8,1.1,5.8,1.8,9,1.8c13.1,0,23.6-10.4,23.6-23.2
		c0-5.6-2.1-10.8-5.5-14.8C282.7,465,281.6,463.9,280.4,463"/>
	<path class="st1" d="M191.1,219.1c-4.1-0.3-8.2-1.1-12.1-2.4C182.9,218,187,218.8,191.1,219.1"/>
	<path class="st1" d="M207.4,218c-2,0.4-4,0.7-6.1,1C203.4,218.7,205.4,218.4,207.4,218"/>
	<path class="st1" d="M173.2,214.4c-1.2-0.6-2.5-1.2-3.7-1.9C170.7,213.2,172,213.9,173.2,214.4"/>
	<path class="st1" d="M169.6,212.5c-1.8-1.1-3.5-2.2-5.2-3.5C166,210.3,167.8,211.5,169.6,212.5"/>
	<path class="st1" d="M177,216c-1.3-0.5-2.6-1-3.8-1.6C174.5,215,175.7,215.6,177,216"/>
	<path class="st1" d="M161.1,206.2c-1-1-2-2-3-3.2C159.1,204.1,160.1,205.2,161.1,206.2"/>
	<path class="st1" d="M193.1,219.2c2.7,0.1,5.5,0,8.2-0.3C198.6,219.2,195.9,219.3,193.1,219.2"/>
	<path class="st1" d="M230.4,207c-1,0.8-2,1.6-3,2.4C228.4,208.7,229.4,207.9,230.4,207"/>
	<path class="st1" d="M154.2,197.6c-0.8-1.3-1.6-2.7-2.3-4.1C152.6,194.9,153.3,196.3,154.2,197.6"/>
	<path class="st1" d="M237.8,198.6c-0.7,1-1.4,2-2.2,3C236.4,200.7,237.1,199.6,237.8,198.6"/>
	<path class="st1" d="M217,215c-1.2,0.5-2.5,1-3.8,1.4C214.6,216,215.8,215.5,217,215"/>
	<path class="st1" d="M416.3,341.8c-14.6-21.4,17.5-48.1,21.8-51.5c0.4-0.3,0.7-0.6,1.1-0.9c34.4-30.7,79.3-38.3,75.9-6.9
		C511.6,314.1,434.7,368.7,416.3,341.8 M558.9,440.2c-0.7,0-1.4,0.1-2.1,0.2c-0.4,0.1-0.9,0.2-1.3,0.3c-1.8,0.4-3.6,0.8-5.2,1.2
		c-8.7,2.2-17.6,3.7-26.5,4c-31.2,0.9-80.8-8.4,25.1-97.1C716.9,208,576.3,114.5,412.5,249c-145.9,119.8-133.3,213-59.4,242.1
		c61.3,24.1,178.6-1.6,213.5-25.8c0.1,0,0.1-0.1,0.2-0.1c3.6-2.5,6-6.6,6-11.3C572.8,446.3,566.6,440.2,558.9,440.2"/>
</g>
</svg>
