<?xml version="1.0" encoding="UTF-8"?>
<svg xmlns="http://www.w3.org/2000/svg" xmlns:xlink="http://www.w3.org/1999/xlink" width="80" height="80" viewBox="0 0 540.46 189.7" version="1.1">
<defs>
<clipPath id="clip1">
  <path d="M 1 94 L 540.460938 94 L 540.460938 189.699219 L 1 189.699219 Z M 1 94 "/>
</clipPath>
</defs>
<g id="surface1">
<g clip-path="url(#clip1)" clip-rule="nonzero">
<path style=" stroke:none;fill-rule:evenodd;fill:rgb(93.299866%,29.798889%,58.399963%);fill-opacity:1;" d="M 540.457031 94.484375 C 508.472656 123.304688 474.769531 147.957031 431.398438 156.5625 C 379.125 166.941406 327.101563 163.671875 274.652344 158.535156 C 185.160156 149.765625 96.460938 150.691406 12.035156 188.191406 C 10.105469 189.046875 7.722656 188.875 1.929688 189.699219 C 41.496094 162.808594 81.871094 146.605469 124.917969 138.183594 C 184.09375 126.605469 243.839844 129.394531 303.382813 136.121094 C 384.839844 145.328125 463.289063 138.140625 535.570313 95.359375 C 536.902344 94.570313 538.816406 94.753906 540.457031 94.484375 "/>
</g>
<path style=" stroke:none;fill-rule:evenodd;fill:rgb(92.89856%,10.998535%,14.099121%);fill-opacity:1;" d="M 520.867188 1.480469 C 513.816406 1.570313 510.492188 5.488281 506.863281 10.351563 C 492.265625 29.921875 477.390625 49.277344 462.753906 68.816406 C 457.820313 75.410156 454.734375 76.867188 452.097656 67.097656 C 447.269531 49.242188 441.28125 31.699219 436.625 13.808594 C 434.316406 4.960938 430.46875 1.039063 420.777344 1.371094 C 411.535156 1.691406 408.628906 5.910156 406.65625 14.109375 C 399.929688 42.085938 392.527344 69.902344 385.625 97.839844 C 384.621094 101.902344 381.328125 112.992188 380.496094 114.6875 C 378.835938 118.066406 378.851563 121.761719 385.417969 122.808594 C 391.851563 123.84375 399.621094 127.054688 402.09375 114.507813 C 405.480469 97.355469 409.132813 80.09375 416.636719 61.367188 C 421.414063 78.824219 425.09375 93.71875 429.726563 108.3125 C 431.121094 112.726563 428.84375 120.355469 437.242188 120.703125 C 444.910156 121.023438 451.261719 120.816406 456.359375 112.285156 C 466.046875 96.101563 476.300781 80.011719 491.847656 63.882813 C 488.636719 81.863281 485.984375 96.671875 483.179688 112.355469 C 488.386719 111.105469 491.878906 110.253906 495.386719 109.433594 C 511.207031 105.714844 520.722656 98.109375 522.335938 79.671875 C 524.164063 58.6875 530.296875 38.078125 534.53125 17.300781 C 537.398438 3.199219 535.351563 1.296875 520.867188 1.480469 "/>
<path style=" stroke:none;fill-rule:evenodd;fill:rgb(92.89856%,10.998535%,14.099121%);fill-opacity:1;" d="M 153.449219 9.5625 C 154.777344 5.003906 153.875 1.621094 147.867188 1.640625 C 120.738281 1.746094 93.613281 1.539063 66.488281 1.785156 C 56.640625 1.878906 57.082031 10.339844 56.605469 16.664063 C 56.039063 24.230469 62.222656 23.183594 67.199219 23.160156 C 78.355469 23.105469 89.515625 23.144531 102.867188 23.144531 C 98.761719 28.804688 96.050781 32.898438 92.996094 36.714844 C 72.667969 62.148438 52.230469 87.496094 31.941406 112.953125 C 29.558594 115.941406 25.351563 118.757813 27.828125 123.429688 C 29.921875 127.390625 34.09375 126.070313 37.617188 126.070313 C 64.761719 126.050781 91.914063 125.566406 119.039063 126.242188 C 130.421875 126.53125 130.015625 119.417969 130.488281 112.183594 C 131.144531 102.085938 123.898438 104.652344 118.445313 105.214844 C 106.035156 106.480469 93.652344 108.648438 79.261719 104.304688 C 101.710938 76.492188 123.195313 49.789063 144.808594 23.191406 C 148.25 18.953125 151.910156 14.859375 153.449219 9.5625 "/>
<path style=" stroke:none;fill-rule:evenodd;fill:rgb(92.89856%,10.998535%,14.099121%);fill-opacity:1;" d="M 387.050781 1.605469 C 377.308594 0.386719 373.28125 4.730469 371.699219 14.011719 C 367.519531 38.535156 363.015625 63.058594 354.675781 86.597656 C 348.710938 103.417969 336.074219 111.214844 319.042969 109.460938 C 305.109375 108.03125 299.308594 101.246094 302.046875 87.644531 C 306.152344 67.277344 310.621094 46.949219 315.921875 26.863281 C 322.761719 0.941406 322.96875 0.761719 295.722656 1.691406 C 291.464844 1.839844 286.070313 0.164063 284.785156 6.699219 C 279.28125 34.644531 272.882813 62.464844 268.757813 90.613281 C 266.273438 107.542969 276.765625 117.542969 293.503906 118.59375 C 305.246094 119.332031 316.953125 120.480469 328.675781 121.445313 C 342.796875 123.367188 355.816406 122.457031 365.28125 109.640625 C 370.722656 102.273438 375.019531 94.417969 377.265625 85.515625 C 383.339844 61.449219 389.296875 37.347656 395.496094 13.304688 C 397.472656 5.648438 394.476563 2.535156 387.050781 1.605469 "/>
<path style=" stroke:none;fill-rule:evenodd;fill:rgb(92.89856%,10.998535%,14.099121%);fill-opacity:1;" d="M 264.871094 1.230469 C 255.363281 0.679688 251.039063 4.613281 249.5 13.925781 C 245.597656 37.546875 240.902344 61.019531 233.445313 83.855469 C 231.144531 90.898438 228.078125 97.277344 222.410156 102.15625 C 214.261719 109.171875 194.738281 111.703125 186.511719 106.546875 C 176 99.953125 179.265625 89.875 181.105469 80.820313 C 184.695313 63.140625 188.589844 45.492188 193.28125 28.082031 C 200.867188 -0.0898438 198.796875 -2.53125 169.484375 1.550781 C 164.339844 2.265625 162.65625 4.390625 162.121094 9.164063 C 159.695313 30.785156 153.613281 51.667969 149.039063 72.855469 C 146.851563 82.988281 144.34375 93.445313 148.597656 103.570313 C 152.988281 114.007813 158.425781 122.113281 172.839844 119.097656 C 185.992188 116.351563 199.578125 114.242188 211.230469 115.414063 C 218.015625 115.414063 223.554688 115.273438 228.152344 114.769531 C 244.8125 112.921875 249.105469 106.214844 255.617188 83.550781 C 262.34375 60.152344 267.53125 36.316406 273.402344 12.671875 C 275.210938 5.378906 272.90625 1.699219 264.871094 1.230469 "/>
<path style=" stroke:none;fill-rule:evenodd;fill:rgb(96.899414%,57.998657%,11.399841%);fill-opacity:1;" d="M 523.992188 127.695313 C 494.121094 165.421875 452.683594 173.328125 403.832031 172.0625 C 448.894531 163.703125 489.199219 153.324219 523.992188 127.695313 "/>
<path style=" stroke:none;fill-rule:evenodd;fill:rgb(96.899414%,57.998657%,11.399841%);fill-opacity:1;" d="M 0 178.972656 C 25.378906 154.324219 54.816406 137.976563 91.398438 137.457031 C 60.632813 150.453125 28.898438 161.367188 0 178.972656 "/>
</g>
</svg>
